<svg xmlns="http://www.w3.org/2000/svg" viewBox="0 0 640 120" role="img" aria-label="Ed's Heavy Mobile Repair">
  <g fill="#ffffff">
    <!-- Semi-truck front -->
    <path d="M6 92V38c0-7 6-13 13-13h34c5 0 10 3 12 7l14 20h20c6 0 11 5 11 11v29H6zm14-10h72V52H66L52 30H23v52zm10 14a8 8 0 1 0 0-16 8 8 0 0 0 0 16zm48 0a8 8 0 1 0 0-16 8 8 0 0 0 0 16z"/>
    <rect x="58" y="44" width="8" height="12" rx="1"/>
    <rect x="68" y="44" width="8" height="12" rx="1"/>
    <rect x="20" y="22" width="10" height="6" rx="1"/>
    <rect x="74" y="22" width="10" height="6" rx="1"/>
    <rect x="34" y="48" width="22" height="14" rx="2"/>
  </g>
  <line x1="108" y1="18" x2="108" y2="102" stroke="#ffffff" stroke-width="3"/>
  <text x="122" y="74" fill="#ffffff" font-family="Inter, Arial, Helvetica, sans-serif" font-weight="700" font-size="27" letter-spacing="0.4">ED'S HEAVY MOBILE REPAIR</text>
</svg>
